<svg xmlns="http://www.w3.org/2000/svg" viewBox="0 0 64 64">
  <rect width="64" height="64" rx="18" fill="#073f42" />
  <path
    d="M17 19.5c1.8-2.5 4.6-3.8 8.3-3.8 2.7 0 5 .7 6.7 2.1 1.8-1.4 4-2.1 6.7-2.1 3.7 0 6.5 1.3 8.3 3.8l-3.8 5.2c-1.2-1.3-2.6-2-4.3-2-1.9 0-3.1.8-3.7 2.4h7.1v6.3h-7.5v13h-7.5v-13h-7.9v-6.3h8.1c-.7-1.6-2-2.4-3.9-2.4-1.7 0-3.1.7-4.3 2L17 19.5Z"
    fill="#ffffff"
  />
  <path
    d="M48.7 12.6c.9 0 1.6.7 1.6 1.6v2.2h2.2c.9 0 1.6.7 1.6 1.6s-.7 1.6-1.6 1.6h-2.2v2.2c0 .9-.7 1.6-1.6 1.6s-1.6-.7-1.6-1.6v-2.2h-2.2c-.9 0-1.6-.7-1.6-1.6s.7-1.6 1.6-1.6h2.2v-2.2c0-.9.7-1.6 1.6-1.6Z"
    fill="#ff4f3c"
  />
  <path
    d="M43.9 47.1c1.3 0 2.3 1 2.3 2.3s-1 2.3-2.3 2.3-2.3-1-2.3-2.3 1-2.3 2.3-2.3Zm6.3-2.8c1.1 0 2 .9 2 2s-.9 2-2 2-2-.9-2-2 .9-2 2-2Zm-12.4 0c1.1 0 2 .9 2 2s-.9 2-2 2-2-.9-2-2 .9-2 2-2Z"
    fill="#bde9e2"
  />
</svg>
